<?xml version="1.0" encoding="UTF-8"?>
<svg id="Layer_2" data-name="Layer 2" xmlns="http://www.w3.org/2000/svg" viewBox="0 0 306.61 308.6">
  <defs>
    <style>
      .cls-1 {
        fill: #046343;
      }
    </style>
  </defs>
  <g id="Layer_1-2" data-name="Layer 1">
    <path class="cls-1" d="M136.82,33.95l-10.04,1.45c-12.22,2.65-20.83,8.87-21.96,21.99-1.88,21.88,4.94,54.29-5.52,73.38-7.67,13.99-23.17,21.13-38.4,23.53,14.73,2.95,29.17,9.35,37.38,22.55,11.82,19.01,4.54,53.19,6.53,75.36.91,10.19,7.25,17.3,17.02,19.93l14.98,3.49h-21.47c-19.02,0-42.43-16.72-44.43-36.46-1.88-18.6,1.74-40.28.03-58.95-2-21.88-28.81-34.91-41.43-12.38-19.04,34,30.91,80.22,10.23,119.09-7.77,14.61-23.5,22.03-39.76,21.66V0c16.66.26,32.94,7.52,40.49,22.93,19.41,39.64-32.19,87.88-9.35,120.2,3.12,4.41,9.4,9.21,14.76,10.24,9.54,1.83,22.82-11.34,24.56-20.5,4.11-21.75-5.53-57.79,5.26-76.63,5.37-9.37,22.77-22.28,33.65-22.28h27.46Z"/>
    <path class="cls-1" d="M306.61,0v308.59c-15.74.42-31.76-6.88-39.39-21.03-21.48-39.82,31.34-89.36,8.66-121.51-9.16-12.98-22.64-13.63-33.18-1.77-12.51,14.08-5.04,56.44-7.01,75.88s-25.32,35.46-43.43,35.46h-22.47c-.07-1.46,3.6-1.52,4.79-1.7,15.41-2.37,26.65-5.67,28.21-23.73,1.9-22.06-5.25-54.8,6.14-73.76,7.84-13.05,22.6-18.96,36.78-22.15-14.83-2.24-30.23-9.68-37.77-23.16-9.81-17.55-3.54-50.23-5.15-70.75-.99-12.57-6.25-20.91-18.81-24.14l-14.19-2.29h27.46c9.39,0,25.8,11.02,31.46,18.48,19.53,25.73-10.61,89.58,26.41,100.41,8.03,2.35,15.76-3.4,20.35-9.7,23.98-32.89-32.7-84.1-6.63-124.47,8.34-12.92,22.7-18.28,37.76-18.66Z"/>
  </g>
</svg>