<?xml version="1.0" encoding="UTF-8"?>
<svg id="Layer_2" data-name="Layer 2" xmlns="http://www.w3.org/2000/svg" viewBox="0 0 280 280">
  <defs>
    <style>
      .cls-1 {
        fill: #215e45;
      }

      .cls-2 {
        fill: #f2ecda;
      }
    </style>
  </defs>
  <g id="Layer_1-2" data-name="Layer 1">
    <rect class="cls-2" width="280" height="280" rx="20" ry="20"/>
    <g id="shapes">
      <g id="right">
        <path class="cls-1" d="M260,139.8V20c-23.8,0-34.4,18.2-34.4,32.1,0,22.7,15.4,43.6,15.4,63.3s-8.9,23.6-16,24c-10.5-.5-20.3-7.6-20.3-20.3v-42.4c0-15-14.9-30.9-36.8-30.9h-13.7c9.6,0,25.2,2.6,25.2,20.2v39.5c0,7.8,4.8,32.3,40.1,34.5-35.2,2.2-40.1,25.1-40.1,34.5v39.5c0,17.6-15.6,20.2-25.2,20.2h13.7c21.9,0,36.8-15.8,36.8-30.9v-42.4c0-12.7,9.8-19.8,20.3-20.3,7.1.4,16,7.9,16,24s-15.4,40.6-15.4,63.3,10.6,32.1,34.4,32.1v-119.8h0v-.4h0Z"/>
      </g>
      <g id="left">
        <path class="cls-1" d="M100.6,214v-39.5c0-7.8-4.8-32.3-40.1-34.5,35.2-2.2,40.1-25.1,40.1-34.5v-39.5c0-17.6,15.6-20.2,25.2-20.2h-13.7c-21.9,0-36.8,15.8-36.8,30.9v42.4c0,12.7-9.8,19.8-20.3,20.3-7.1-.4-16-7.9-16-24s15.4-40.6,15.4-63.3S43.8,20,20,20v119.8h0v.4h0v119.8c23.8,0,34.4-18.2,34.4-32.1,0-22.7-15.4-43.6-15.4-63.3s8.9-23.6,16-24c10.5.5,20.3,7.6,20.3,20.3v42.4c0,15,14.9,30.9,36.8,30.9h13.7c-9.6,0-25.2-2.6-25.2-20.2h0Z"/>
      </g>
    </g>
  </g>
</svg>