<?xml version="1.0" encoding="UTF-8"?>
<svg id="Layer_2" data-name="Layer 2" xmlns="http://www.w3.org/2000/svg" viewBox="0 0 105.84 240">
  <defs>
    <style>
      .cls-1 {
        fill: #215e45;
      }

      .cls-2 {
        isolation: isolate;
      }
    </style>
  </defs>
  <g id="Layer_2-2" data-name="Layer 2">
    <g id="Right" class="cls-2">
      <g id="Right-2" data-name="Right">
        <path id="Right-3" data-name="Right" class="cls-1" d="M25.24,194c0,17.57-15.6,20.17-25.24,20.17h13.73c21.87,0,36.79-15.84,36.79-30.85,0-7.25.07-37.27.07-42.43,0-12.74,9.78-19.75,20.28-20.29,7.07.38,15.97,7.94,15.97,23.97,0,19.72-15.38,40.58-15.38,63.32,0,13.92,10.61,32.11,34.38,32.11-.02,0,0-112.52,0-119.81h0v-.38h0c0-7.28-.02-119.81,0-119.81-23.77,0-34.38,18.19-34.38,32.1,0,22.74,15.38,43.6,15.38,63.32,0,16.03-8.9,23.58-15.97,23.97-10.5-.53-20.28-7.55-20.28-20.29,0-5.16-.07-35.18-.07-42.43,0-15.02-14.91-30.85-36.79-30.85H0c9.64,0,25.24,2.61,25.24,20.17,0,7.46.04,31.72.04,39.47,0,9.41,4.85,32.3,40.07,34.54-35.23,2.24-40.07,25.14-40.07,34.54,0,7.75-.04,32.01-.04,39.47h0Z"/>
      </g>
    </g>
  </g>
</svg>