<?xml version="1.0" encoding="UTF-8"?>
<svg id="Layer_2" data-name="Layer 2" xmlns="http://www.w3.org/2000/svg" viewBox="0 0 240 240">
  <defs>
    <style>
      .cls-1 {
        fill: #215e45;
      }
    </style>
  </defs>
  <g id="shapes">
    <g id="right">
      <path class="cls-1" d="M240,119.81c0-7.29-.02-119.81,0-119.81-23.77,0-34.38,18.19-34.38,32.11,0,22.74,15.38,43.6,15.38,63.32,0,16.03-8.9,23.59-15.97,23.97-10.5-.54-20.28-7.55-20.28-20.29,0-5.16-.07-35.18-.07-42.43,0-15.01-14.92-30.85-36.79-30.85h-13.73c9.64,0,25.24,2.6,25.24,20.17,0,7.46.04,31.72.04,39.47,0,9.4,4.84,32.3,40.07,34.54-35.22,2.24-40.07,25.13-40.07,34.54,0,7.75-.04,32.01-.04,39.47,0,17.56-15.6,20.17-25.24,20.17h13.73c21.88,0,36.79-15.83,36.79-30.85,0-7.25.07-37.27.07-42.43,0-12.74,9.78-19.76,20.28-20.29,7.07.39,15.97,7.94,15.97,23.97,0,19.72-15.38,40.58-15.38,63.32,0,13.92,10.61,32.11,34.38,32.11-.02,0,0-112.53,0-119.81h0v-.38h0Z"/>
    </g>
    <g id="left">
      <path class="cls-1" d="M80.6,194.01c0-7.46-.04-31.72-.04-39.47,0-9.4-4.84-32.3-40.07-34.54,35.22-2.24,40.07-25.13,40.07-34.54,0-7.75.04-32.01.04-39.47,0-17.56,15.6-20.17,25.24-20.17h-13.73c-21.88,0-36.79,15.83-36.79,30.85,0,7.25-.07,37.27-.07,42.43,0,12.74-9.78,19.76-20.28,20.29-7.07-.39-15.97-7.94-15.97-23.97,0-19.72,15.38-40.58,15.38-63.32C34.38,18.19,23.77,0,0,0c.02,0,0,112.53,0,119.81H0v.38h0c0,7.29.02,119.81,0,119.81,23.77,0,34.38-18.19,34.38-32.11,0-22.74-15.38-43.6-15.38-63.32,0-16.03,8.9-23.59,15.97-23.97,10.5.54,20.28,7.55,20.28,20.29,0,5.16.07,35.18.07,42.43,0,15.01,14.92,30.85,36.79,30.85h13.73c-9.64,0-25.24-2.6-25.24-20.17Z"/>
    </g>
  </g>
</svg>