<?xml version="1.0" encoding="UTF-8"?>
<svg id="Layer_2" xmlns="http://www.w3.org/2000/svg" version="1.1" viewBox="0 0 240 240">
  <!-- Generator: Adobe Illustrator 29.6.1, SVG Export Plug-In . SVG Version: 2.1.1 Build 9)  -->
  <defs>
    <style>
      .st0 {
        fill: #215e45;
      }
    </style>
  </defs>
  <g id="shapes">
    <g id="right">
      <path class="st0" d="M240,119.8c0-7.3,0-119.8,0-119.8-23.8,0-34.4,18.2-34.4,32.1,0,22.7,15.4,43.6,15.4,63.3s-8.9,23.6-16,24c-10.5-.5-20.3-7.6-20.3-20.3s0-35.2,0-42.4c0-15-14.9-30.9-36.8-30.9h-13.7c9.6,0,25.2,2.6,25.2,20.2s0,31.7,0,39.5,4.8,32.3,40.1,34.5c-35.2,2.2-40.1,25.1-40.1,34.5s0,32,0,39.5c0,17.6-15.6,20.2-25.2,20.2h13.7c21.9,0,36.8-15.8,36.8-30.9s0-37.3,0-42.4c0-12.7,9.8-19.8,20.3-20.3,7.1.4,16,7.9,16,24s-15.4,40.6-15.4,63.3,10.6,32.1,34.4,32.1c0,0,0-112.5,0-119.8h0v-.4h0Z"/>
    </g>
    <g id="left">
      <path class="st0" d="M80.6,194c0-7.5,0-31.7,0-39.5s-4.8-32.3-40.1-34.5c35.2-2.2,40.1-25.1,40.1-34.5s0-32,0-39.5c0-17.6,15.6-20.2,25.2-20.2h-13.7c-21.9,0-36.8,15.8-36.8,30.9s0,37.3,0,42.4c0,12.7-9.8,19.8-20.3,20.3-7.1-.4-16-7.9-16-24s15.4-40.6,15.4-63.3S23.8,0,0,0c0,0,0,112.5,0,119.8h0v.4h0c0,7.3,0,119.8,0,119.8,23.8,0,34.4-18.2,34.4-32.1,0-22.7-15.4-43.6-15.4-63.3s8.9-23.6,16-24c10.5.5,20.3,7.6,20.3,20.3s0,35.2,0,42.4c0,15,14.9,30.9,36.8,30.9h13.7c-9.6,0-25.2-2.6-25.2-20.2h0Z"/>
    </g>
  </g>
</svg>