<?xml version="1.0" encoding="UTF-8"?>
<svg id="Layer_2" data-name="Layer 2" xmlns="http://www.w3.org/2000/svg" viewBox="0 0 981.93 943.05">
  <defs>
    <style>
      .cls-1 {
        fill: #215e45;
      }
    </style>
  </defs>
  <g id="Layer_1-2" data-name="Layer 1">
    <path class="cls-1" d="M218.22,208.43c1.24-28,8.52-50.41,35.26-65.14,70.14-38.66,148.31,47.95,215.31,16.44,15.36-7.23,19.92-18.75,22.24-34.28l4.77,17.07c46.12,57.38,125.02-4.56,182.87-9.3,50.83-4.16,84.42,27.03,87.27,75.02,32.3-.13,62.54,17.6,73.35,47.4,22.37,61.68-50.1,130.06-26,189.1,6.4,15.68,21.03,25.77,38.8,25.9v-209.38c55.68.99,72.4,38.83,59.84,86.76-9.94,37.91-53.11,108.73,10.83,123.57-12.03.57-21.81,6.6-27.9,16.58-29.89,49,55.62,124.7,5.97,175.51-6.44,6.59-48.74,27.85-48.74,15.4v-206.55c-25.58-2.04-40.85,20.39-43.16,42.46-6.14,58.9,53.37,118.02,28.4,176.32-12.32,28.77-40.18,41.94-71.31,43.69-2.75,25.31-10.68,48.34-33.81,62.76-68.43,42.66-146.81-42.71-213.71-16.79-9.64,3.74-21.84,13.64-24.62,23.49-1.22,4.31.68,11.53-2.85,13.26-2.27-17.67-8.75-28.93-26.14-36.19-66.86-27.93-152.18,62.98-218.16,13.52-21.9-16.41-27.38-34.67-28.5-60.32,25.28,1.3,51.2-.97,76.55,0-3.55-30.99,10.6-66.67,41.21-80.17,38.96-17.19,125.07,15.04,148.03-25.6l7.96-24.41c1.11,13.08,5.21,28.45,16.83,36.67,23.22,16.41,89.58,5.63,120.54,8.64,29.27,2.85,54.33,32.39,57.7,59.6,1.05,8.43-2.45,19.09,3.16,25.26h73.59v-73.57c-29.4.76-58.41-7.91-76.2-31.45-21.36-28.27-8.81-87.44-12.03-122.36-2.16-23.43-24.83-34.48-47.2-35.76,18.53-2.65,40.93-9.27,46.19-29.18,5.89-22.26-1.12-67.56.95-93.4,3.73-46.69,42.06-68.88,88.29-66.99v-73.57h-73.59l-2.63,3.13c2.44,28.58-9.14,58.62-35.37,73.52-49.32,28-154.08-26.77-160.22,53.52l-4.27-16.64c-6.07-17.54-19.71-27.13-38.82-28.71-30.01-2.48-64.43,2.9-94.25.05-40.55-3.88-65.34-48.35-59.86-84.88-25.35.95-51.25-1.25-76.55,0ZM685.28,208.43h-388.56c2.53,20.8,16.92,32.26,38.2,34.02,72.67,6.01,132.03-24.56,154.3,64.84.56,2.24.78,4.52,3.73,4.89,1.21-28.8,18.72-56.57,48.02-66.09,33.28-10.81,81.12,2.16,114.99-4.53,15.71-3.11,28.28-17.85,29.32-33.12ZM763.78,657.38v-373.49c-13.51,3.8-29.33,11.89-32.49,26.3-8.18,37.33,9.97,88.37-10.36,123.97-13.74,24.06-40.24,33.53-67.07,37.42,24.45,2.87,50.09,12.09,64.46,32.38,23.99,33.88,4.91,89.49,12.97,127.13,3.2,14.98,16.93,25.16,32.49,26.3ZM296.72,734.72h388.56c-2.38-20.09-14.98-32.26-36.24-34.02-60.11-4.99-130.52,21.15-153.12-52.77-1.69-5.54-3.38-11.08-2.98-16.96-5.69,5.08-5.39,15.53-8.27,23.15-27.25,71.94-102.91,36.46-158.63,47.47-15.71,3.11-28.28,17.85-29.32,33.12Z"/>
    <path class="cls-1" d="M218.22,208.43c-1.08,24.41.81,49.14,0,73.58,28.59-1.97,62.86,8.94,78.16,33.34,19.06,30.4,6.78,83.08,10.09,118.58,2.41,25.83,23.06,34.71,47.2,37.65-23.99,2.24-44.84,12.33-47.2,37.65-3.28,35.14,8.94,88.69-10.09,118.58-15.38,24.16-49.65,35.09-78.16,33.34.81,24.44-1.06,49.16,0,73.58-54.5-2.79-83.85-34.63-78.26-87.49,4.94-46.7,47.57-100.41,29.56-147.71-6.26-16.44-20.57-28.48-39.61-27v209.38c-26.18,1.69-52.76-14.63-60.94-38.57-16.63-48.68,37.1-100,22.66-146.28-4.66-14.92-17.23-26.61-34.33-24.53v167.88c-38.01-1.79-55.27-28.01-48.53-62.68,6.34-32.62,48.16-92.12-6.44-106.15,54.37-13.14,12.76-73.67,6.44-106.15-6.88-35.34,10.99-59.25,48.53-62.68v167.88c17.02,1.29,28.32-8.65,33.46-23.49,16.28-47-38.54-98.4-21.79-147.33,8.46-24.72,34.12-40.35,60.94-38.57v209.38c19.39.7,33.14-10.01,39.61-27,22.38-58.78-48.59-126.59-25.95-189.05,11.64-32.1,41.61-44.5,74.64-46.15ZM218.22,283.88v373.49c13.58-.15,29.63-11.37,32.49-24.42,7.44-33.97-6.93-93.09,10.33-124,13.25-23.72,40.65-34.16,67.1-37.38-25.93-3.74-53.96-13.89-67.1-37.38-17.25-30.85-2.9-90.07-10.33-124-3.19-14.56-18.75-22.79-32.49-26.3Z"/>
    <path class="cls-1" d="M710.79,123.55h-439.59c3.35-41.89,31.02-64.64,75.01-59.84,44.83,4.89,124.42,60.42,145.76-6.2-.17,13.2,9.12,23.69,21.5,28.4,52.96,20.14,115.3-46.69,169.67-14.07,18.4,11.04,27,31.36,27.65,51.71Z"/>
    <path class="cls-1" d="M710.79,819.6c-.14,24.58-14.72,49-39.68,57.12-47.17,15.35-94.14-26.95-141.92-23.24-17.58,1.37-37.46,11.08-36.25,30.25-6.39-6.34-4.67-14.24-12.71-20.78-35.04-28.52-98.48,13.12-137.64,16.77-41.15,3.84-69-21.2-71.39-60.13h439.59Z"/>
    <path class="cls-1" d="M859.94,117.9c-13.13,15.34-9.17,30.87,2.92,45.28,29.95,35.68,108.57,39.25,117.88,90.42,3.25,17.87-2.53,41.05-19.46,50.89L663.73,18.85c17.6-18.61,46.51-23.73,69.98-12.6,43.92,20.83,52.45,119.51,105.65,119.19,8.31-.05,13.39-5.59,20.58-7.54Z"/>
    <path class="cls-1" d="M859.94,825.24c-7.94-2.54-13.27-7.92-22.51-7.62-40.07,1.32-58.73,67.19-77.13,93.89-24.31,35.26-63.52,42.84-96.57,12.78l297.54-285.64c16.93,9.84,22.71,33.03,19.46,50.89-9.36,51.48-88.21,54.41-117.88,90.42-12.01,14.58-16.14,29.74-2.92,45.28Z"/>
    <path class="cls-1" d="M124.04,117.89c13.29,10.06,25.13,8.28,39.29,1,35.66-18.32,42.2-78.1,73.49-104.79,23.11-19.71,61.14-18.04,81.44,4.76L19.3,304.49c-28.04-25.57-23.59-63.88,5.95-86.31,35.8-27.19,126.24-40.15,98.79-100.3Z"/>
    <path class="cls-1" d="M122.06,825.24c11.14-11.72,9.81-24.33,2.97-37.73-17.52-34.34-81.58-41.98-108.99-70.66-21.44-22.43-21.38-59.87,4.69-78.19l297.54,285.64c-21.86,23.15-59.63,24.56-83.45,2.91-30.02-27.28-42.2-106.23-88.51-109.36-10.5-.71-15.34,4.12-24.25,7.4Z"/>
    <path class="cls-1" d="M316.34,55.64c-2.97-20.91,13.73-43.95,35.21-48.21,38.03-7.55,72.47,23.73,111.09,20.01,13.1-1.26,26.34-9.09,27.39-22.74l9.77,15.12c44.44,28.54,96.29-31.6,141.72-7.95,16.04,8.35,25.86,26.26,24.13,43.77h-349.32Z"/>
    <path class="cls-1" d="M667.62,887.51c-2.14,14.43-5.76,28.69-17.81,38.52-40.56,33.11-95.54-22.78-138.85-8.96-11.03,3.52-18.81,11.91-18.98,23.27-18.73-53.74-84-6.33-121.7-3.83-31.06,2.06-54.57-19-53.94-49.01h351.28Z"/>
    <path class="cls-1" d="M924.7,302.75c32.22-.38,53.6,22.57,50.47,53.25-3.64,35.68-51.36,98.99,4.5,115.58-12.12.67-19.28,6.23-23.66,16.89-15.68,38.17,31.66,81.4,16.36,121.36-7.78,20.32-26.56,28.32-47.67,30.57v-337.65Z"/>
    <path class="cls-1" d="M895.26,83.95c-18.68,39.14,41.63,49.52,65.41,66.33,24.39,17.24,28.29,41.45,8.12,63.81L760,14.82c17.98-23.94,48.63-16.42,65.46,5.1,18.18,23.25,26.54,80.72,69.8,64.03Z"/>
    <path class="cls-1" d="M895.26,859.2c-43.86-16.78-51.75,42.28-71.79,65.88-17.44,20.54-45.95,25.88-63.47,3.25l208.78-199.27c20.18,22.36,16.27,46.57-8.12,63.81-24,16.97-83.99,26.83-65.41,66.33Z"/>
    <path class="cls-1" d="M221.86,10.61c1.2,2.01.02,4.79-1.58,6.45L16.08,213.22c-25.84-17.43-17.93-46.56,5.24-62.94,24.84-17.56,84.72-26.95,65.42-68.23,19.43,14.41,36.45-2.69,46.69-18.29C151.35,36.48,156.43-4.9,201.37,1.1c3.99.53,19.05,7.09,20.49,9.51Z"/>
    <path class="cls-1" d="M86.73,859.2c12.73-19.69-5.18-36.1-22.24-45.57-15.59-8.65-33.02-12.52-47.39-24.25-21.2-17.31-22.04-40.4-3.9-60.32l208.78,199.27c-15.39,21.48-45.1,17.51-61.69-1.18-21.27-23.97-28.2-85.16-73.57-67.95Z"/>
    <path class="cls-1" d="M155.17,6.82l-1.62,6.48L13.19,148.11l-4.91,1.83c-6.93-12.29-11.97-20.92-3.67-34.6,14.08-23.2,68.92-21.22,56.64-57.81,28.04,14.81,36.89-28.41,49.38-44,12.04-15.03,28.04-16.89,44.55-6.71Z"/>
    <path class="cls-1" d="M920.77,883.72c-39.54-11.53-35.43,53.56-67.82,58.37-9.29,1.38-22.53-.76-26.23-9.99l145.99-138.9c14.2,15.23,11.47,31.94-4.96,44.2-16.54,12.35-57.72,17.5-46.97,46.33Z"/>
    <path class="cls-1" d="M155.17,936.33c-10.98,6.96-22.61,8.66-34.49,2.49-24.16-12.54-22.59-66.2-59.46-55.1,12.71-41.21-63.95-32.3-60.96-72.58.32-4.25,7.02-22.24,12.94-16.12l140.35,134.84,1.62,6.48Z"/>
    <path class="cls-1" d="M920.77,59.43c-10.47,28.33,28.75,33.26,45.78,45.58,17.27,12.49,20.9,28.62,6.23,44.91L826.73,11.05c3.62-11.57,22.91-12.51,32.71-8.69,23.94,9.33,24.74,68.55,61.34,57.07Z"/>
  </g>
</svg>