<?xml version="1.0" encoding="UTF-8"?>
<svg id="Layer_1" data-name="Layer 1" xmlns="http://www.w3.org/2000/svg" viewBox="0 0 841.92 307.95">
  <defs>
    <style>
      .cls-1 {
        fill: #046343;
      }
    </style>
  </defs>
  <path class="cls-1" d="M0,.12c15.08,0,32.33,5.31,41.92,17.5,31.58,40.13-35.44,93.58-5.95,126.79,3.44,3.88,11.64,8.76,16.73,9.32,8.41.94,22.84-10.14,25.67-17.82,6.59-17.89-3.2-52.63,3.48-72.41,4.58-13.54,26.47-29.42,40.49-29.42h31.46l-15.18,2.29c-11.5,2.81-19.75,9.79-20.81,22.14-1.5,17.53,1.66,37.47.02,54.94-2.38,25.24-27.99,38.93-50.93,40.96,18.38,1.94,38.69,10.25,46.96,27.95,8.3,17.76,2.14,48.83,3.94,68.96,1.03,11.54,10.09,18.69,20.81,21.13l15.18,2.29h-31.46c-1.92,0-11.31-3.26-13.75-4.23-42.25-16.9-25.46-54.6-28.66-90.18-1.04-11.57-13.26-23.92-24.77-25.24-6.31-.72-16.2,5.55-20.18,10.33-25.55,30.66,30.11,80.16,11.5,118.35-8.19,16.8-28.25,25.8-46.48,23.93V.12Z"/>
  <path class="cls-1" d="M841.92,0c-15.08,0-32.33,5.31-41.92,17.5-31.58,40.13,35.44,93.58,5.95,126.79-3.44,3.88-11.64,8.76-16.73,9.32-8.41.94-22.84-10.14-25.67-17.82-6.59-17.89,3.2-52.63-3.48-72.41-4.58-13.54-26.47-29.42-40.49-29.42h-31.46s15.18,2.29,15.18,2.29c11.5,2.81,19.75,9.79,20.81,22.14,1.5,17.53-1.66,37.47-.02,54.94,2.38,25.24,27.99,38.93,50.93,40.96-18.38,1.94-38.69,10.25-46.96,27.95-8.3,17.76-2.14,48.83-3.94,68.96-1.03,11.54-10.09,18.69-20.81,21.13l-15.18,2.29h31.46c1.92,0,11.31-3.26,13.75-4.23,42.25-16.9,25.46-54.6,28.66-90.18,1.04-11.57,13.26-23.92,24.77-25.24,6.31-.72,16.2,5.55,20.18,10.33,25.55,30.66-30.11,80.16-11.5,118.35,8.19,16.8,28.25,25.8,46.48,23.93V0Z"/>
</svg>